<?xml version="1.0" standalone="no"?><!DOCTYPE svg PUBLIC "-//W3C//DTD SVG 1.1//EN" "http://www.w3.org/Graphics/SVG/1.1/DTD/svg11.dtd"><svg class="icon" width="16px" height="16.00px" viewBox="0 0 1024 1024" version="1.1" xmlns="http://www.w3.org/2000/svg"><path fill="#ffffff" d="M733.866667 89.6c76.8 4.266667 149.333333 42.666667 187.733333 128 38.4 89.6 21.333333 170.666667-42.666667 238.933333-46.933333 51.2-93.866667 93.866667-140.8 145.066667-21.333333 21.333333-55.466667 21.333333-72.533333 4.266667-17.066667-17.066667-17.066667-46.933333 4.266667-68.266667L810.666667 396.8c68.266667-72.533333 38.4-187.733333-59.733334-213.333333-42.666667-12.8-81.066667-4.266667-110.933333 25.6-51.2 46.933333-93.866667 93.866667-145.066667 140.8-8.533333 8.533333-25.6 17.066667-42.666666 17.066666-34.133333-4.266667-51.2-46.933333-25.6-72.533333 55.466667-55.466667 106.666667-110.933333 166.4-162.133333 34.133333-34.133333 76.8-42.666667 140.8-42.666667zM89.6 721.066667c0-59.733333 21.333333-110.933333 64-153.6L294.4 426.666667c21.333333-21.333333 51.2-25.6 68.266667-4.266667 21.333333 21.333333 17.066667 46.933333-4.266667 68.266667l-136.533333 136.533333C166.4 682.666667 166.4 759.466667 213.333333 810.666667c46.933333 46.933333 128 51.2 179.2 0l136.533334-136.533334c25.6-25.6 68.266667-17.066667 76.8 17.066667 4.266667 12.8-4.266667 34.133333-12.8 42.666667-51.2 51.2-98.133333 106.666667-153.6 153.6-68.266667 59.733333-145.066667 68.266667-226.133334 34.133333-76.8-38.4-123.733333-115.2-123.733333-200.533333z m610.133333-345.6c-4.266667 4.266667-4.266667 17.066667-12.8 25.6-93.866667 93.866667-183.466667 187.733333-277.333333 277.333333-21.333333 21.333333-46.933333 17.066667-68.266667 0-17.066667-17.066667-17.066667-42.666667 4.266667-64L618.666667 341.333333c12.8-12.8 34.133333-21.333333 51.2-12.8 21.333333 8.533333 29.866667 21.333333 29.866666 46.933334z m0 0"  /></svg>