<?xml version="1.0" standalone="no"?><!DOCTYPE svg PUBLIC "-//W3C//DTD SVG 1.1//EN" "http://www.w3.org/Graphics/SVG/1.1/DTD/svg11.dtd"><svg class="icon" width="32px" height="32.00px" viewBox="0 0 1024 1024" version="1.1" xmlns="http://www.w3.org/2000/svg"><path fill="#ffffff" d="M511.469 64.501c-247.137 0-447.48 200.344-447.48 447.48s200.343 447.481 447.48 447.481 447.48-200.344 447.48-447.48S758.606 64.5 511.47 64.5zM265.373 332.989h492.208c1.406 0 2.623 0.565 3.978 0.81L511.477 542.163 261.416 333.799c1.355-0.252 2.58-0.81 3.957-0.81z m-22.393 335.6V355.367c0-2.385 0.689-4.53 1.377-6.682l177.34 147.774-177.6 177.594c-0.443-1.79-1.117-3.507-1.117-5.464z m514.607 22.384H265.373c-1.906 0-3.652-0.644-5.413-1.11l179-178.99 65.357 54.458c2.072 1.746 4.623 2.587 7.16 2.587 2.557 0 5.094-0.84 7.145-2.587l65.416-54.487 179.035 179.02c-1.797 0.473-3.543 1.11-5.486 1.11z m22.37-22.377c0 1.935-0.63 3.659-1.086 5.449L601.328 496.466l177.276-147.76c0.71 2.139 1.355 4.312 1.355 6.66v313.23z"  /></svg>