<?xml version="1.0" standalone="no"?><!DOCTYPE svg PUBLIC "-//W3C//DTD SVG 1.1//EN" "http://www.w3.org/Graphics/SVG/1.1/DTD/svg11.dtd"><svg class="icon" width="32px" height="32.00px" viewBox="0 0 1024 1024" version="1.1" xmlns="http://www.w3.org/2000/svg"><path fill="#ffdb64" d="M727.774345 501.834476c12.480242-35.427884 19.434631-73.461105 19.434631-113.165386 0-150.419871-97.446379-277.996478-232.621035-323.283918C379.413286 110.673635 281.96793 238.249219 281.96793 388.66909c0 37.989219 6.252401 74.503854 17.721617 108.620883-40.817638 42.032302-66.051345 99.286284-66.051345 162.505118 0 44.274366 12.552897 85.517699 33.961486 120.79004 67.984371-54.435797 154.184615-87.065961 248.051469-87.065961 91.402733 0 175.531805 30.946826 242.658645 82.82845 19.848047-34.32476 31.387871-74.052576 31.387871-116.553553C789.69665 598.785575 766.097162 543.420617 727.774345 501.834476zM509.276982 453.463816c-56.316633 0-101.970416-45.653783-101.970416-101.970416s45.653783-101.970416 101.970416-101.970416c56.316633 0 101.970416 45.653783 101.970416 101.970416S565.593616 453.463816 509.276982 453.463816zM505.028215 745.036497c-49.113581 0-76.477812 44.935422-76.477812 97.190553s31.477922 97.109712 76.477812 116.786867c44.99989-19.676132 76.477812-64.530712 76.477812-116.786867S554.141796 745.036497 505.028215 745.036497z" /></svg>