  <svg
  class="icon"
  width="16px"
  height="16.00px"
  viewBox="0 0 1024 1024"
  version="1.1"
  xmlns="http://www.w3.org/2000/svg"
>
  <path
    fill="#ffffff"
    d="M597.333333 544c-29.44 0-53.333333 23.893333-53.333333 53.333333v213.333334c0 29.44 23.893333 53.333333 53.333333 53.333333h213.333334c29.44 0 53.333333-23.893333 53.333333-53.333333v-213.333334c0-29.44-23.893333-53.333333-53.333333-53.333333h-213.333334zM480 597.333333A117.333333 117.333333 0 0 1 597.333333 480h213.333334A117.333333 117.333333 0 0 1 928 597.333333v213.333334A117.333333 117.333333 0 0 1 810.666667 928h-213.333334A117.333333 117.333333 0 0 1 480 810.666667v-213.333334z"
    fill-opacity=".85"
  />
  <path
    fill="#ffffff"
    d="M213.333333 544c-29.44 0-53.333333 23.893333-53.333333 53.333333v213.333334c0 29.44 23.893333 53.333333 53.333333 53.333333h213.333334c29.44 0 53.333333-23.893333 53.333333-53.333333v-213.333334c0-29.44-23.893333-53.333333-53.333333-53.333333H213.333333zM96 597.333333A117.333333 117.333333 0 0 1 213.333333 480h213.333334A117.333333 117.333333 0 0 1 544 597.333333v213.333334A117.333333 117.333333 0 0 1 426.666667 928H213.333333A117.333333 117.333333 0 0 1 96 810.666667v-213.333334z"
    fill-opacity=".85"
  />
  <path
    fill="#ffffff"
    d="M405.333333 160c-29.44 0-53.333333 23.893333-53.333333 53.333333v213.333334c0 29.44 23.893333 53.333333 53.333333 53.333333h213.333334c29.44 0 53.333333-23.893333 53.333333-53.333333V213.333333c0-29.44-23.893333-53.333333-53.333333-53.333333h-213.333334zM288 213.333333A117.333333 117.333333 0 0 1 405.333333 96h213.333334A117.333333 117.333333 0 0 1 736 213.333333v213.333334a117.333333 117.333333 0 0 1-117.333333 117.333333h-213.333334A117.333333 117.333333 0 0 1 288 426.666667V213.333333zM224 768a32 32 0 0 1 32-32h85.333333a32 32 0 0 1 0 64H256a32 32 0 0 1-32-32z"
    fill-opacity=".85"
  />
  <path
    fill="#ffffff"
    d="M394.666667 384a32 32 0 0 1 32-32h85.333333a32 32 0 0 1 0 64h-85.333333A32 32 0 0 1 394.666667 384zM608 768a32 32 0 0 1 32-32h85.333333a32 32 0 0 1 0 64h-85.333333a32 32 0 0 1-32-32z"
    fill-opacity=".85"
  />
</svg>