<?xml version="1.0" standalone="no"?><!DOCTYPE svg PUBLIC "-//W3C//DTD SVG 1.1//EN" "http://www.w3.org/Graphics/SVG/1.1/DTD/svg11.dtd"><svg class="icon" width="32px" height="32.00px" viewBox="0 0 1024 1024" version="1.1" xmlns="http://www.w3.org/2000/svg"><path fill="#070606" d="M947.2 610.133333c8.533333-29.866667 8.533333-64 8.533333-93.866666 0-243.2-196.266667-443.733333-443.733333-443.733334-25.6 0-51.2 4.266667-76.8 8.533334-38.4-25.6-85.333333-38.4-136.533333-38.4-140.8 0-256 115.2-256 256 0 46.933333 12.8 93.866667 34.133333 128-4.266667 29.866667-8.533333 59.733333-8.533333 89.6 0 243.2 196.266667 443.733333 443.733333 443.733333 29.866667 0 55.466667-4.266667 81.066667-8.533333 34.133333 21.333333 76.8 29.866667 119.466666 29.866666 140.8 0 256-115.2 256-256 8.533333-42.666667-4.266667-81.066667-21.333333-115.2zM742.4 725.333333c-21.333333 29.866667-51.2 51.2-89.6 68.266667-38.4 17.066667-85.333333 25.6-136.533333 25.6-64 0-115.2-12.8-157.866667-34.133333-29.866667-17.066667-55.466667-38.4-72.533333-64-21.333333-25.6-29.866667-55.466667-29.866667-81.066667 0-17.066667 4.266667-29.866667 17.066667-42.666667 12.8-12.8 25.6-17.066667 46.933333-17.066666 17.066667 0 29.866667 4.266667 38.4 12.8 8.533333 8.533333 17.066667 21.333333 25.6 38.4 8.533333 17.066667 17.066667 34.133333 25.6 46.933333 8.533333 12.8 21.333333 21.333333 38.4 29.866667 17.066667 8.533333 38.4 12.8 64 12.8 38.4 0 68.266667-8.533333 89.6-21.333334 21.333333-17.066667 34.133333-34.133333 34.133333-55.466666 0-17.066667-4.266667-29.866667-17.066666-42.666667-12.8-12.8-29.866667-21.333333-46.933334-25.6-21.333333-4.266667-46.933333-12.8-81.066666-21.333333-46.933333-8.533333-85.333333-21.333333-115.2-34.133334-29.866667-12.8-55.466667-34.133333-76.8-55.466666-17.066667-25.6-29.866667-55.466667-29.866667-89.6s8.533333-68.266667 29.866667-93.866667c17.066667-25.6 46.933333-42.666667 85.333333-59.733333 38.4-12.8 81.066667-21.333333 128-21.333334 38.4 0 72.533333 4.266667 102.4 12.8 29.866667 8.533333 55.466667 21.333333 72.533333 38.4 21.333333 17.066667 34.133333 29.866667 42.666667 46.933334 8.533333 17.066667 12.8 34.133333 12.8 51.2 0 17.066667-4.266667 29.866667-17.066667 42.666666-12.8 12.8-25.6 17.066667-46.933333 17.066667-17.066667 0-29.866667-4.266667-38.4-12.8-8.533333-8.533333-17.066667-17.066667-25.6-34.133333-12.8-21.333333-25.6-38.4-38.4-51.2-12.8-4.266667-38.4-12.8-72.533333-12.8-29.866667 0-59.733333 4.266667-76.8 17.066666-17.066667 12.8-25.6 25.6-25.6 42.666667 0 8.533333 4.266667 17.066667 8.533333 25.6 4.266667 8.533333 17.066667 12.8 25.6 21.333333 12.8 4.266667 25.6 8.533333 34.133333 12.8 12.8 4.266667 34.133333 8.533333 59.733334 17.066667 34.133333 8.533333 68.266667 17.066667 98.133333 25.6 29.866667 8.533333 55.466667 21.333333 76.8 34.133333 21.333333 12.8 38.4 29.866667 51.2 51.2 12.8 21.333333 17.066667 46.933333 17.066667 76.8 0 42.666667-8.533333 72.533333-29.866667 102.4z"  /></svg>